<svg xmlns="http://www.w3.org/2000/svg" width="154.845" height="41.449" viewBox="0 0 154.845 41.449">
  <g id="LogoHorizontal_Light" data-name="LogoHorizontal Light" transform="translate(-988 -432)">
    <g id="LogoHorizontal_Light-2" data-name="LogoHorizontal Light" transform="translate(988 432)">
      <path id="Exclusion_6" data-name="Exclusion 6" d="M20.419,41.449c-8.977,0-13.922,0-17.17-3.3S0,29.835,0,20.724,0,6.594,3.249,3.3,11.442,0,20.419,0,34.341,0,37.59,3.3s3.248,8.317,3.248,17.428,0,14.13-3.248,17.427S29.4,41.449,20.419,41.449Zm5.266-17.116h0L19.18,28.146l6.505,3.814V24.333ZM11.867,16.716h0v7.627l6.505-3.813-6.505-3.814ZM25.685,9.294h0L19.18,13.107l6.505,3.813V9.294Z" transform="translate(0)" fill="#ededed"/>
      <path id="Path_298" data-name="Path 298" d="M-45.248,1.282h6.219c4.122,0,6.858-2.594,6.858-6.45,0-3.8-2.665-6.165-6.805-6.165h-6.272Zm3.216-2.292V-9.041h2.754c2.345,0,3.731,1.546,3.731,3.909,0,2.381-1.35,4.122-3.749,4.122Zm14.214,2.559c1.848,0,3.234-.657,3.8-1.777a7.868,7.868,0,0,0,.124,1.51h3.038a12.174,12.174,0,0,1-.213-2.594V-4.049c0-2.594-1.528-3.82-4.922-3.82-2.967,0-4.957,1.226-5.188,3.234h3.163c.107-.871.835-1.35,2.026-1.35,1.173,0,1.83.48,1.83,1.475v.267l-3.216.284a6.514,6.514,0,0,0-3.074.853,2.243,2.243,0,0,0-.995,1.954C-31.442.518-30.057,1.548-27.818,1.548ZM-26.645-.3C-27.676-.3-28.3-.708-28.3-1.366c0-.675.515-1.031,1.812-1.19l2.381-.249v.533C-24.1-1.082-25.135-.3-26.645-.3Zm6.077-5.295h1.99v3.749c0,2.2,1.244,3.323,3.909,3.323a7.078,7.078,0,0,0,2.061-.267V-1.1a4.548,4.548,0,0,1-1.226.142c-1.119,0-1.67-.5-1.67-1.546V-5.595h2.914V-7.6H-15.5v-3.251l-3.074,1.137V-7.6h-1.99ZM-8.291,1.548c1.848,0,3.234-.657,3.8-1.777a7.867,7.867,0,0,0,.124,1.51h3.038a12.174,12.174,0,0,1-.213-2.594V-4.049c0-2.594-1.528-3.82-4.922-3.82-2.967,0-4.957,1.226-5.188,3.234h3.163c.107-.871.835-1.35,2.026-1.35,1.173,0,1.83.48,1.83,1.475v.267l-3.216.284a6.514,6.514,0,0,0-3.074.853,2.243,2.243,0,0,0-.995,1.954C-11.916.518-10.53,1.548-8.291,1.548ZM-7.118-.3c-1.031,0-1.652-.409-1.652-1.066,0-.675.515-1.031,1.812-1.19l2.381-.249v.533C-4.578-1.082-5.608-.3-7.118-.3ZM1.89,1.282H5.052L6.758-3.924a3.539,3.539,0,0,0,.2-.871h.053a4.46,4.46,0,0,0,.178.871L8.89,1.282h3.163L14.985-7.6H11.964L10.507-2.165a7.822,7.822,0,0,0-.178.888h-.036a5.115,5.115,0,0,0-.2-.888L8.393-7.6H5.55L3.844-2.165a7.54,7.54,0,0,0-.2.888H3.613a8.141,8.141,0,0,0-.16-.888L1.979-7.6h-3Zm16.719.267c1.848,0,3.234-.657,3.8-1.777a7.868,7.868,0,0,0,.124,1.51h3.038a12.174,12.174,0,0,1-.213-2.594V-4.049c0-2.594-1.528-3.82-4.922-3.82-2.967,0-4.957,1.226-5.188,3.234h3.163c.107-.871.835-1.35,2.026-1.35,1.173,0,1.83.48,1.83,1.475v.267l-3.216.284a6.514,6.514,0,0,0-3.074.853,2.243,2.243,0,0,0-.995,1.954C14.985.518,16.37,1.548,18.609,1.548ZM19.782-.3c-1.031,0-1.652-.409-1.652-1.066,0-.675.515-1.031,1.812-1.19l2.381-.249v.533C22.323-1.082,21.292-.3,19.782-.3ZM30.549-11.6H27.475V1.282h3.074Zm5.437,0H32.912V1.282h3.074ZM48.1-3.2c0-2.932-1.919-4.673-5.295-4.673-3.287,0-5.384,1.812-5.384,4.779,0,2.914,2.1,4.637,5.526,4.637A5.544,5.544,0,0,0,47.908-.78L45.616-1.828a2.891,2.891,0,0,1-2.576,1.3c-1.564,0-2.576-.746-2.683-1.954H48.1Zm-3.021-.942H40.339a2.139,2.139,0,0,1,2.434-1.99c1.4,0,2.31.728,2.31,1.937Zm3.109-1.457h1.99v3.749c0,2.2,1.244,3.323,3.909,3.323a7.078,7.078,0,0,0,2.061-.267V-1.1a4.548,4.548,0,0,1-1.226.142c-1.119,0-1.67-.5-1.67-1.546V-5.595H56.17V-7.6H53.256v-3.251L50.182-9.717V-7.6h-1.99Z" transform="translate(98.675 26.017)" fill="#ededed"/>
    </g>
  </g>
</svg>
